<?xml version="1.0" encoding="UTF-8"?>
<!DOCTYPE svg PUBLIC "-//W3C//DTD SVG 1.1//EN" "http://www.w3.org/Graphics/SVG/1.1/DTD/svg11.dtd">
<svg xmlns="http://www.w3.org/2000/svg" version="1.1" width="44px" height="44px" style="shape-rendering:geometricPrecision; text-rendering:geometricPrecision; image-rendering:optimizeQuality; fill-rule:evenodd; clip-rule:evenodd" xmlns:xlink="http://www.w3.org/1999/xlink">
<g><path style="opacity:1" fill="#f9f52a" d="M 3.5,-0.5 C 4.83333,-0.5 6.16667,-0.5 7.5,-0.5C 8.60048,0.60486 9.26714,1.93819 9.5,3.5C 9.5,3.83333 9.5,4.16667 9.5,4.5C 9.16667,4.5 8.83333,4.5 8.5,4.5C 8.16667,4.5 7.83333,4.5 7.5,4.5C 7.25038,3.07794 6.41704,2.07794 5,1.5C 4.24109,3.06291 3.07442,4.06291 1.5,4.5C 2.4408,2.95047 3.10746,1.2838 3.5,-0.5 Z"/></g>
<g><path style="opacity:1" fill="#fdfc89" d="M 25.5,-0.5 C 27.5,-0.5 29.5,-0.5 31.5,-0.5C 30.7375,0.26791 29.7375,0.76791 28.5,1C 27.7476,1.67076 27.4142,2.5041 27.5,3.5C 27.1583,4.33825 26.4916,4.67158 25.5,4.5C 25.5,2.83333 25.5,1.16667 25.5,-0.5 Z"/></g>
<g><path style="opacity:1" fill="#fcfc63" d="M 34.5,-0.5 C 37.5,-0.5 40.5,-0.5 43.5,-0.5C 43.5,-0.166667 43.5,0.166667 43.5,0.5C 42.5,0.5 41.5,0.5 40.5,0.5C 40.4326,1.95875 40.7659,3.29208 41.5,4.5C 40.5,4.5 39.5,4.5 38.5,4.5C 38.3059,0.995161 37.3059,0.661828 35.5,3.5C 35.1667,3.5 34.8333,3.5 34.5,3.5C 33.6236,3.63088 32.9569,3.29755 32.5,2.5C 33.1925,1.48224 33.8592,0.482236 34.5,-0.5 Z"/></g>
<g><path style="opacity:1" fill="#fbee32" d="M 11.5,-0.5 C 12.8333,-0.5 14.1667,-0.5 15.5,-0.5C 15.7678,1.09903 15.4345,2.43236 14.5,3.5C 14.5386,2.24382 14.0386,1.24382 13,0.5C 12.3162,1.78387 12.4829,2.95054 13.5,4C 12.2068,4.49001 10.8734,4.65668 9.5,4.5C 9.5,4.16667 9.5,3.83333 9.5,3.5C 11.1765,2.81658 11.8432,1.48324 11.5,-0.5 Z"/></g>
<g><path style="opacity:1" fill="#fcfcb1" d="M 19.5,-0.5 C 21.5,-0.5 23.5,-0.5 25.5,-0.5C 25.5,1.16667 25.5,2.83333 25.5,4.5C 23.5853,4.21552 21.9187,4.54885 20.5,5.5C 20.1667,5.5 19.8333,5.5 19.5,5.5C 19.1667,5.5 18.8333,5.5 18.5,5.5C 19.3414,3.6208 19.6747,1.6208 19.5,-0.5 Z"/></g>
<g><path style="opacity:1" fill="#fcfdaa" d="M 31.5,-0.5 C 32.5,-0.5 33.5,-0.5 34.5,-0.5C 33.8592,0.482236 33.1925,1.48224 32.5,2.5C 32.9569,3.29755 33.6236,3.63088 34.5,3.5C 34.1667,4.5 33.5,5.16667 32.5,5.5C 30.5891,5.4257 29.4224,4.4257 29,2.5C 28.6174,3.05596 28.1174,3.38929 27.5,3.5C 27.4142,2.5041 27.7476,1.67076 28.5,1C 29.7375,0.76791 30.7375,0.26791 31.5,-0.5 Z"/></g>
<g><path style="opacity:1" fill="#fdfc3d" d="M 43.5,0.5 C 43.5,1.83333 43.5,3.16667 43.5,4.5C 42.8333,4.5 42.1667,4.5 41.5,4.5C 40.7659,3.29208 40.4326,1.95875 40.5,0.5C 41.5,0.5 42.5,0.5 43.5,0.5 Z"/></g>
<g><path style="opacity:1" fill="#f77c05" d="M -0.5,-0.5 C 0.833333,-0.5 2.16667,-0.5 3.5,-0.5C 3.10746,1.2838 2.4408,2.95047 1.5,4.5C 0.833333,4.83333 0.166667,5.16667 -0.5,5.5C -0.5,3.5 -0.5,1.5 -0.5,-0.5 Z"/></g>
<g><path style="opacity:1" fill="#fad31c" d="M 7.5,-0.5 C 8.83333,-0.5 10.1667,-0.5 11.5,-0.5C 11.8432,1.48324 11.1765,2.81658 9.5,3.5C 9.26714,1.93819 8.60048,0.60486 7.5,-0.5 Z"/></g>
<g><path style="opacity:1" fill="#f9fda9" d="M 41.5,4.5 C 41.5,4.83333 41.5,5.16667 41.5,5.5C 40.209,5.26269 39.209,5.59603 38.5,6.5C 37.1001,5.90018 36.1001,4.90018 35.5,3.5C 37.3059,0.661828 38.3059,0.995161 38.5,4.5C 39.5,4.5 40.5,4.5 41.5,4.5 Z"/></g>
<g><path style="opacity:1" fill="#fcfd1e" d="M 7.5,4.5 C 5.6203,4.22911 4.28696,4.89578 3.5,6.5C 2.16667,6.5 1.5,5.83333 1.5,4.5C 3.07442,4.06291 4.24109,3.06291 5,1.5C 6.41704,2.07794 7.25038,3.07794 7.5,4.5 Z"/></g>
<g><path style="opacity:1" fill="#fcfb41" d="M 7.5,4.5 C 7.83333,4.5 8.16667,4.5 8.5,4.5C 8.5,4.83333 8.5,5.16667 8.5,5.5C 4.48893,5.83507 3.48893,7.83507 5.5,11.5C 4.60895,10.8902 3.60895,10.5569 2.5,10.5C 2.83333,9.16667 3.16667,7.83333 3.5,6.5C 4.28696,4.89578 5.6203,4.22911 7.5,4.5 Z"/></g>
<g><path style="opacity:1" fill="#fafb52" d="M 14.5,3.5 C 14.5,4.83333 14.5,6.16667 14.5,7.5C 14.1667,7.5 13.8333,7.5 13.5,7.5C 11.9891,6.49751 10.3224,5.83084 8.5,5.5C 8.5,5.16667 8.5,4.83333 8.5,4.5C 8.83333,4.5 9.16667,4.5 9.5,4.5C 10.8734,4.65668 12.2068,4.49001 13.5,4C 12.4829,2.95054 12.3162,1.78387 13,0.5C 14.0386,1.24382 14.5386,2.24382 14.5,3.5 Z"/></g>
<g><path style="opacity:1" fill="#fbf772" d="M 15.5,-0.5 C 16.8333,-0.5 18.1667,-0.5 19.5,-0.5C 19.6747,1.6208 19.3414,3.6208 18.5,5.5C 17.2905,5.93205 16.2905,6.59872 15.5,7.5C 15.1667,7.5 14.8333,7.5 14.5,7.5C 14.5,6.16667 14.5,4.83333 14.5,3.5C 15.4345,2.43236 15.7678,1.09903 15.5,-0.5 Z"/></g>
<g><path style="opacity:1" fill="#e7e6b5" d="M 32.5,5.5 C 32.5,6.16667 32.1667,6.5 31.5,6.5C 29.2362,5.78138 26.9029,5.44805 24.5,5.5C 23.1667,5.5 21.8333,5.5 20.5,5.5C 21.9187,4.54885 23.5853,4.21552 25.5,4.5C 26.4916,4.67158 27.1583,4.33825 27.5,3.5C 28.1174,3.38929 28.6174,3.05596 29,2.5C 29.4224,4.4257 30.5891,5.4257 32.5,5.5 Z"/></g>
<g><path style="opacity:1" fill="#fcfbec" d="M 34.5,3.5 C 34.8333,3.5 35.1667,3.5 35.5,3.5C 36.1001,4.90018 37.1001,5.90018 38.5,6.5C 37.791,7.40397 36.791,7.73731 35.5,7.5C 34.5,7.83333 33.8333,8.5 33.5,9.5C 33.1667,9.5 32.8333,9.5 32.5,9.5C 32.4431,8.39105 32.1098,7.39105 31.5,6.5C 32.1667,6.5 32.5,6.16667 32.5,5.5C 33.5,5.16667 34.1667,4.5 34.5,3.5 Z"/></g>
<g><path style="opacity:1" fill="#712910" d="M 19.5,5.5 C 19.8333,5.5 20.1667,5.5 20.5,5.5C 21.8333,5.5 23.1667,5.5 24.5,5.5C 24.3284,6.49162 24.6618,7.15829 25.5,7.5C 25.5,8.16667 25.5,8.83333 25.5,9.5C 24.5,9.5 23.5,9.5 22.5,9.5C 22.5,8.83333 22.5,8.16667 22.5,7.5C 21.5,6.83333 20.5,6.16667 19.5,5.5 Z"/></g>
<g><path style="opacity:1" fill="#563927" d="M 24.5,5.5 C 26.9029,5.44805 29.2362,5.78138 31.5,6.5C 32.1098,7.39105 32.4431,8.39105 32.5,9.5C 31.8333,9.83333 31.1667,10.1667 30.5,10.5C 30.5,9.5 30.5,8.5 30.5,7.5C 28.8333,7.5 27.1667,7.5 25.5,7.5C 24.6618,7.15829 24.3284,6.49162 24.5,5.5 Z"/></g>
<g><path style="opacity:1" fill="#fdfa26" d="M 1.5,4.5 C 1.5,5.83333 2.16667,6.5 3.5,6.5C 3.16667,7.83333 2.83333,9.16667 2.5,10.5C 1.83333,10.5 1.5,10.8333 1.5,11.5C 0.833333,11.5 0.166667,11.5 -0.5,11.5C -0.5,9.5 -0.5,7.5 -0.5,5.5C 0.166667,5.16667 0.833333,4.83333 1.5,4.5 Z"/></g>
<g><path style="opacity:1" fill="#8c360d" d="M 18.5,5.5 C 18.8333,5.5 19.1667,5.5 19.5,5.5C 20.5,6.16667 21.5,6.83333 22.5,7.5C 20.6776,7.83084 19.0109,8.49751 17.5,9.5C 17.1667,8.5 16.5,7.83333 15.5,7.5C 16.2905,6.59872 17.2905,5.93205 18.5,5.5 Z"/></g>
<g><path style="opacity:1" fill="#75240c" d="M 25.5,7.5 C 27.1667,7.5 28.8333,7.5 30.5,7.5C 30.5,8.5 30.5,9.5 30.5,10.5C 29.2921,9.76589 27.9587,9.43255 26.5,9.5C 26.1667,9.5 25.8333,9.5 25.5,9.5C 25.5,8.83333 25.5,8.16667 25.5,7.5 Z"/></g>
<g><path style="opacity:1" fill="#fdfcfd" d="M 38.5,6.5 C 40.256,7.55213 40.9227,9.21879 40.5,11.5C 40.5654,11.9382 40.3988,12.2716 40,12.5C 38.2417,10.9168 36.7417,9.25013 35.5,7.5C 36.791,7.73731 37.791,7.40397 38.5,6.5 Z"/></g>
<g><path style="opacity:1" fill="#fbfecf" d="M 38.5,6.5 C 39.209,5.59603 40.209,5.26269 41.5,5.5C 41.4203,8.78139 42.087,11.7814 43.5,14.5C 43.5,15.1667 43.5,15.8333 43.5,16.5C 42.5,16.5 41.5,16.5 40.5,16.5C 41.494,14.6656 41.494,12.9989 40.5,11.5C 40.9227,9.21879 40.256,7.55213 38.5,6.5 Z"/></g>
<g><path style="opacity:1" fill="#fcfc9a" d="M 41.5,4.5 C 42.1667,4.5 42.8333,4.5 43.5,4.5C 43.5,7.83333 43.5,11.1667 43.5,14.5C 42.087,11.7814 41.4203,8.78139 41.5,5.5C 41.5,5.16667 41.5,4.83333 41.5,4.5 Z"/></g>
<g><path style="opacity:1" fill="#faf5d0" d="M 10.5,10.5 C 10.5,10.8333 10.5,11.1667 10.5,11.5C 9.83333,11.5 9.16667,11.5 8.5,11.5C 7.56552,10.4324 7.23219,9.09903 7.5,7.5C 8.20895,6.59603 9.20895,6.26269 10.5,6.5C 10.5,7.83333 10.5,9.16667 10.5,10.5 Z"/></g>
<g><path style="opacity:1" fill="#fafcf3" d="M 35.5,7.5 C 36.7417,9.25013 38.2417,10.9168 40,12.5C 40.3988,12.2716 40.5654,11.9382 40.5,11.5C 41.494,12.9989 41.494,14.6656 40.5,16.5C 39.5084,16.3284 38.8417,16.6618 38.5,17.5C 37.1001,16.9002 36.1001,15.9002 35.5,14.5C 35.1075,12.7162 34.4408,11.0495 33.5,9.5C 33.8333,8.5 34.5,7.83333 35.5,7.5 Z"/></g>
<g><path style="opacity:1" fill="#f9f37c" d="M 8.5,5.5 C 10.3224,5.83084 11.9891,6.49751 13.5,7.5C 12.8333,8.83333 11.8333,9.83333 10.5,10.5C 10.5,9.16667 10.5,7.83333 10.5,6.5C 9.20895,6.26269 8.20895,6.59603 7.5,7.5C 6.55647,10.6678 6.55647,14.0012 7.5,17.5C 7.16667,17.5 6.83333,17.5 6.5,17.5C 6.16667,15.5 5.83333,13.5 5.5,11.5C 3.48893,7.83507 4.48893,5.83507 8.5,5.5 Z"/></g>
<g><path style="opacity:1" fill="#e4d889" d="M 7.5,7.5 C 7.23219,9.09903 7.56552,10.4324 8.5,11.5C 8.5,13.5 8.5,15.5 8.5,17.5C 8.16667,17.5 7.83333,17.5 7.5,17.5C 6.55647,14.0012 6.55647,10.6678 7.5,7.5 Z"/></g>
<g><path style="opacity:1" fill="#823708" d="M 13.5,7.5 C 13.8333,7.5 14.1667,7.5 14.5,7.5C 14.8333,7.5 15.1667,7.5 15.5,7.5C 16.5,7.83333 17.1667,8.5 17.5,9.5C 16.7659,10.7079 16.4326,12.0413 16.5,13.5C 16.1667,13.5 15.8333,13.5 15.5,13.5C 15.631,12.7611 15.4643,12.0944 15,11.5C 13.3499,14.106 11.8499,14.106 10.5,11.5C 10.5,11.1667 10.5,10.8333 10.5,10.5C 11.8333,9.83333 12.8333,8.83333 13.5,7.5 Z"/></g>
<g><path style="opacity:1" fill="#a2500b" d="M 22.5,7.5 C 22.5,8.16667 22.5,8.83333 22.5,9.5C 19.9238,11.8875 18.9238,14.8875 19.5,18.5C 18.3127,16.9275 17.3127,15.2608 16.5,13.5C 16.4326,12.0413 16.7659,10.7079 17.5,9.5C 19.0109,8.49751 20.6776,7.83084 22.5,7.5 Z"/></g>
<g><path style="opacity:1" fill="#905719" d="M 32.5,9.5 C 32.8333,9.5 33.1667,9.5 33.5,9.5C 34.4408,11.0495 35.1075,12.7162 35.5,14.5C 34.8826,14.3893 34.3826,14.056 34,13.5C 33.5045,15.4727 33.3379,17.4727 33.5,19.5C 33.1667,19.5 32.8333,19.5 32.5,19.5C 32.5,19.1667 32.5,18.8333 32.5,18.5C 32.8799,16.302 32.2132,14.6354 30.5,13.5C 30.5,13.1667 30.5,12.8333 30.5,12.5C 30.5,11.8333 30.5,11.1667 30.5,10.5C 31.1667,10.1667 31.8333,9.83333 32.5,9.5 Z"/></g>
<g><path style="opacity:1" fill="#fac31c" d="M -0.5,12.5 C -0.5,12.1667 -0.5,11.8333 -0.5,11.5C 0.166667,11.5 0.833333,11.5 1.5,11.5C 2.49722,11.4701 3.16389,11.9701 3.5,13C 2.85242,14.4397 2.51909,15.9397 2.5,17.5C 2.16667,17.5 1.83333,17.5 1.5,17.5C 1.92271,15.2188 1.25605,13.5521 -0.5,12.5 Z"/></g>
<g><path style="opacity:1" fill="#783e17" d="M 27.5,11.5 C 25.7215,12.6697 24.7215,14.3364 24.5,16.5C 24.5,16.8333 24.5,17.1667 24.5,17.5C 23.8333,17.5 23.1667,17.5 22.5,17.5C 23.7279,15.9902 23.7279,14.4902 22.5,13C 23,12.5 23.5,12 24,11.5C 24.9862,12.1712 26.1529,12.1712 27.5,11.5 Z"/></g>
<g><path style="opacity:1" fill="#49240e" d="M 8.5,11.5 C 9.16667,11.5 9.83333,11.5 10.5,11.5C 11.8499,14.106 13.3499,14.106 15,11.5C 15.4643,12.0944 15.631,12.7611 15.5,13.5C 14.8333,13.8333 14.1667,14.1667 13.5,14.5C 12.8333,14.5 12.1667,14.5 11.5,14.5C 10.1001,15.0998 9.10008,16.0998 8.5,17.5C 8.5,15.5 8.5,13.5 8.5,11.5 Z"/></g>
<g><path style="opacity:1" fill="#be8a5d" d="M 26.5,9.5 C 27.9587,9.43255 29.2921,9.76589 30.5,10.5C 30.5,11.1667 30.5,11.8333 30.5,12.5C 28.9731,12.427 27.9731,13.0937 27.5,14.5C 26.2223,14.7822 25.2223,15.4489 24.5,16.5C 24.7215,14.3364 25.7215,12.6697 27.5,11.5C 27.1667,10.8333 26.8333,10.1667 26.5,9.5 Z"/></g>
<g><path style="opacity:1" fill="#4c3c43" d="M 30.5,12.5 C 30.5,12.8333 30.5,13.1667 30.5,13.5C 30.0679,14.7095 29.4013,15.7095 28.5,16.5C 28.6716,15.5084 28.3382,14.8417 27.5,14.5C 27.9731,13.0937 28.9731,12.427 30.5,12.5 Z"/></g>
<g><path style="opacity:1" fill="#f8aa0e" d="M -0.5,12.5 C 1.25605,13.5521 1.92271,15.2188 1.5,17.5C 0.833333,17.8333 0.166667,18.1667 -0.5,18.5C -0.5,16.5 -0.5,14.5 -0.5,12.5 Z"/></g>
<g><path style="opacity:1" fill="#fdf554" d="M 1.5,11.5 C 1.5,10.8333 1.83333,10.5 2.5,10.5C 3.60895,10.5569 4.60895,10.8902 5.5,11.5C 5.83333,13.5 6.16667,15.5 6.5,17.5C 6.16667,17.5 5.83333,17.5 5.5,17.5C 4.5,17.5 3.5,17.5 2.5,17.5C 2.51909,15.9397 2.85242,14.4397 3.5,13C 3.16389,11.9701 2.49722,11.4701 1.5,11.5 Z"/></g>
<g><path style="opacity:1" fill="#efc955" d="M 22.5,9.5 C 23.5,9.5 24.5,9.5 25.5,9.5C 25.8333,9.5 26.1667,9.5 26.5,9.5C 26.8333,10.1667 27.1667,10.8333 27.5,11.5C 26.1529,12.1712 24.9862,12.1712 24,11.5C 23.5,12 23,12.5 22.5,13C 23.7279,14.4902 23.7279,15.9902 22.5,17.5C 21.7777,18.5511 20.7777,19.2178 19.5,19.5C 19.5,19.1667 19.5,18.8333 19.5,18.5C 18.9238,14.8875 19.9238,11.8875 22.5,9.5 Z"/></g>
<g><path style="opacity:1" fill="#a6540e" d="M 15.5,13.5 C 15.6036,15.7028 16.2702,17.7028 17.5,19.5C 17.5,19.8333 17.5,20.1667 17.5,20.5C 17.1667,20.5 16.8333,20.5 16.5,20.5C 16.1667,19.5 15.5,18.8333 14.5,18.5C 13.7659,17.2921 13.4326,15.9587 13.5,14.5C 14.1667,14.1667 14.8333,13.8333 15.5,13.5 Z"/></g>
<g><path style="opacity:1" fill="#e78829" d="M 15.5,13.5 C 15.8333,13.5 16.1667,13.5 16.5,13.5C 17.3127,15.2608 18.3127,16.9275 19.5,18.5C 19.5,18.8333 19.5,19.1667 19.5,19.5C 18.8333,19.5 18.1667,19.5 17.5,19.5C 16.2702,17.7028 15.6036,15.7028 15.5,13.5 Z"/></g>
<g><path style="opacity:1" fill="#dcccc9" d="M 30.5,13.5 C 32.2132,14.6354 32.8799,16.302 32.5,18.5C 31.2921,17.7659 29.9587,17.4326 28.5,17.5C 28.5,17.1667 28.5,16.8333 28.5,16.5C 29.4013,15.7095 30.0679,14.7095 30.5,13.5 Z"/></g>
<g><path style="opacity:1" fill="#f9f3f0" d="M 27.5,14.5 C 28.3382,14.8417 28.6716,15.5084 28.5,16.5C 28.5,16.8333 28.5,17.1667 28.5,17.5C 27.5,18.1667 26.5,18.8333 25.5,19.5C 25.6716,18.5084 25.3382,17.8417 24.5,17.5C 24.5,17.1667 24.5,16.8333 24.5,16.5C 25.2223,15.4489 26.2223,14.7822 27.5,14.5 Z"/></g>
<g><path style="opacity:1" fill="#130305" d="M 11.5,14.5 C 12.1667,14.5 12.8333,14.5 13.5,14.5C 13.4326,15.9587 13.7659,17.2921 14.5,18.5C 14.2172,19.2891 13.7172,19.9558 13,20.5C 12.5831,19.244 11.7498,18.5774 10.5,18.5C 10.4326,17.0413 10.7659,15.7079 11.5,14.5 Z"/></g>
<g><path style="opacity:1" fill="#3c3031" d="M 28.5,17.5 C 29.9587,17.4326 31.2921,17.7659 32.5,18.5C 32.5,18.8333 32.5,19.1667 32.5,19.5C 31.8333,19.8333 31.1667,20.1667 30.5,20.5C 29.0011,19.506 27.3344,19.506 25.5,20.5C 25.5,20.1667 25.5,19.8333 25.5,19.5C 26.5,18.8333 27.5,18.1667 28.5,17.5 Z"/></g>
<g><path style="opacity:1" fill="#f7d31c" d="M 1.5,17.5 C 1.83333,17.5 2.16667,17.5 2.5,17.5C 3.5,17.5 4.5,17.5 5.5,17.5C 4.57075,18.3149 3.57075,19.1482 2.5,20C 3.33663,21.0113 3.66997,22.1779 3.5,23.5C 3.5,23.8333 3.5,24.1667 3.5,24.5C 2.16667,25.1667 0.833333,25.8333 -0.5,26.5C -0.5,23.8333 -0.5,21.1667 -0.5,18.5C 0.166667,18.1667 0.833333,17.8333 1.5,17.5 Z"/></g>
<g><path style="opacity:1" fill="#e7cd43" d="M 5.5,17.5 C 5.83333,17.5 6.16667,17.5 6.5,17.5C 6.53905,20.089 5.53905,22.089 3.5,23.5C 3.66997,22.1779 3.33663,21.0113 2.5,20C 3.57075,19.1482 4.57075,18.3149 5.5,17.5 Z"/></g>
<g><path style="opacity:1" fill="#e9a63b" d="M 22.5,17.5 C 23.1667,17.5 23.8333,17.5 24.5,17.5C 24.1667,18.1667 23.8333,18.8333 23.5,19.5C 22.2921,20.2341 20.9587,20.5674 19.5,20.5C 19.5,21.5 19.5,22.5 19.5,23.5C 18.8333,24.1667 18.1667,24.8333 17.5,25.5C 17.5,23.8333 17.5,22.1667 17.5,20.5C 17.5,20.1667 17.5,19.8333 17.5,19.5C 18.1667,19.5 18.8333,19.5 19.5,19.5C 20.7777,19.2178 21.7777,18.5511 22.5,17.5 Z"/></g>
<g><path style="opacity:1" fill="#e7ca5b" d="M 35.5,14.5 C 36.1001,15.9002 37.1001,16.9002 38.5,17.5C 37.7659,18.7079 37.4326,20.0413 37.5,21.5C 37.5,22.1667 37.5,22.8333 37.5,23.5C 37.1667,23.5 36.8333,23.5 36.5,23.5C 35.9744,21.7697 34.9744,20.4363 33.5,19.5C 33.3379,17.4727 33.5045,15.4727 34,13.5C 34.3826,14.056 34.8826,14.3893 35.5,14.5 Z"/></g>
<g><path style="opacity:1" fill="#fcf36f" d="M 40.5,16.5 C 41.5,16.5 42.5,16.5 43.5,16.5C 43.5,17.5 43.5,18.5 43.5,19.5C 42.448,19.3505 41.448,19.5172 40.5,20C 41.7112,20.8928 41.7112,21.7261 40.5,22.5C 39.5832,21.8728 38.5832,21.5394 37.5,21.5C 37.4326,20.0413 37.7659,18.7079 38.5,17.5C 38.8417,16.6618 39.5084,16.3284 40.5,16.5 Z"/></g>
<g><path style="opacity:1" fill="#1e1105" d="M 11.5,14.5 C 10.7659,15.7079 10.4326,17.0413 10.5,18.5C 9.83333,18.5 9.5,18.8333 9.5,19.5C 7.89578,20.287 7.22911,21.6203 7.5,23.5C 6.78238,25.2458 5.78238,25.9125 4.5,25.5C 5.02527,26.1924 5.69194,26.6924 6.5,27C 5.26253,27.2321 4.26253,27.7321 3.5,28.5C 3.16667,28.5 2.83333,28.5 2.5,28.5C 2.83333,27.1667 3.16667,25.8333 3.5,24.5C 3.5,24.1667 3.5,23.8333 3.5,23.5C 5.53905,22.089 6.53905,20.089 6.5,17.5C 6.83333,17.5 7.16667,17.5 7.5,17.5C 7.83333,17.5 8.16667,17.5 8.5,17.5C 9.10008,16.0998 10.1001,15.0998 11.5,14.5 Z"/></g>
<g><path style="opacity:1" fill="#5a1118" d="M 9.5,19.5 C 10.9311,19.8807 11.7645,20.8807 12,22.5C 13.1127,21.695 14.2794,21.0283 15.5,20.5C 15.1898,22.1436 14.1898,23.1436 12.5,23.5C 11.209,23.2627 10.209,23.596 9.5,24.5C 8.83333,26.5 8.16667,28.5 7.5,30.5C 7.5,28.1667 7.5,25.8333 7.5,23.5C 7.22911,21.6203 7.89578,20.287 9.5,19.5 Z"/></g>
<g><path style="opacity:1" fill="#06080b" d="M 30.5,20.5 C 29.2597,21.6588 27.9264,22.6588 26.5,23.5C 26.5,24.5 26.5,25.5 26.5,26.5C 25.6618,26.1583 25.3284,25.4916 25.5,24.5C 25.5,23.1667 25.5,21.8333 25.5,20.5C 27.3344,19.506 29.0011,19.506 30.5,20.5 Z"/></g>
<g><path style="opacity:1" fill="#2b090a" d="M 9.5,19.5 C 9.5,18.8333 9.83333,18.5 10.5,18.5C 11.7498,18.5774 12.5831,19.244 13,20.5C 13.7172,19.9558 14.2172,19.2891 14.5,18.5C 15.5,18.8333 16.1667,19.5 16.5,20.5C 16.1667,20.5 15.8333,20.5 15.5,20.5C 14.2794,21.0283 13.1127,21.695 12,22.5C 11.7645,20.8807 10.9311,19.8807 9.5,19.5 Z"/></g>
<g><path style="opacity:1" fill="#c46a0c" d="M 23.5,19.5 C 23.5,20.5 23.5,21.5 23.5,22.5C 22.8333,22.8333 22.1667,23.1667 21.5,23.5C 20.8333,23.5 20.1667,23.5 19.5,23.5C 19.5,22.5 19.5,21.5 19.5,20.5C 20.9587,20.5674 22.2921,20.2341 23.5,19.5 Z"/></g>
<g><path style="opacity:1" fill="#1d1725" d="M 30.5,20.5 C 32.102,23.5342 31.7687,26.2009 29.5,28.5C 29.5,26.8333 29.5,25.1667 29.5,23.5C 28.5,23.5 27.5,23.5 26.5,23.5C 27.9264,22.6588 29.2597,21.6588 30.5,20.5 Z"/></g>
<g><path style="opacity:1" fill="#f8cf37" d="M 43.5,19.5 C 43.5,21.1667 43.5,22.8333 43.5,24.5C 41.8762,24.3601 40.7096,25.0267 40,26.5C 39.1482,25.4293 38.3149,24.4293 37.5,23.5C 37.5,22.8333 37.5,22.1667 37.5,21.5C 38.5832,21.5394 39.5832,21.8728 40.5,22.5C 41.7112,21.7261 41.7112,20.8928 40.5,20C 41.448,19.5172 42.448,19.3505 43.5,19.5 Z"/></g>
<g><path style="opacity:1" fill="#d67048" d="M 33.5,19.5 C 34.9744,20.4363 35.9744,21.7697 36.5,23.5C 36.7947,25.7354 36.4614,27.7354 35.5,29.5C 35.7709,27.6203 35.1042,26.287 33.5,25.5C 33.5,23.5 33.5,21.5 33.5,19.5 Z"/></g>
<g><path style="opacity:1" fill="#1b0303" d="M 7.5,23.5 C 7.5,25.8333 7.5,28.1667 7.5,30.5C 7.5,30.8333 7.5,31.1667 7.5,31.5C 6.83333,31.1667 6.16667,30.8333 5.5,30.5C 5.16667,29.5 4.5,28.8333 3.5,28.5C 4.26253,27.7321 5.26253,27.2321 6.5,27C 5.69194,26.6924 5.02527,26.1924 4.5,25.5C 5.78238,25.9125 6.78238,25.2458 7.5,23.5 Z"/></g>
<g><path style="opacity:1" fill="#b33c1d" d="M 15.5,20.5 C 15.8333,20.5 16.1667,20.5 16.5,20.5C 15.9285,22.36 15.9285,24.0267 16.5,25.5C 14.9519,25.8212 14.2852,26.8212 14.5,28.5C 13.8333,27.5 13.1667,26.5 12.5,25.5C 12.5,24.8333 12.5,24.1667 12.5,23.5C 14.1898,23.1436 15.1898,22.1436 15.5,20.5 Z"/></g>
<g><path style="opacity:1" fill="#cd8dc7" d="M 26.5,23.5 C 27.5,23.5 28.5,23.5 29.5,23.5C 29.5,25.1667 29.5,26.8333 29.5,28.5C 28.2223,28.2178 27.2223,27.5511 26.5,26.5C 26.5,25.5 26.5,24.5 26.5,23.5 Z"/></g>
<g><path style="opacity:1" fill="#fbec50" d="M 19.5,23.5 C 20.1667,23.5 20.8333,23.5 21.5,23.5C 21.7373,24.791 21.404,25.791 20.5,26.5C 19.9348,28.42 18.9348,30.0867 17.5,31.5C 17.5,29.5 17.5,27.5 17.5,25.5C 18.1667,24.8333 18.8333,24.1667 19.5,23.5 Z"/></g>
<g><path style="opacity:1" fill="#e5ca80" d="M 24.5,17.5 C 25.3382,17.8417 25.6716,18.5084 25.5,19.5C 25.5,19.8333 25.5,20.1667 25.5,20.5C 25.5,21.8333 25.5,23.1667 25.5,24.5C 24.5655,25.5676 24.2322,26.901 24.5,28.5C 23.5386,26.7354 23.2053,24.7354 23.5,22.5C 23.5,21.5 23.5,20.5 23.5,19.5C 23.8333,18.8333 24.1667,18.1667 24.5,17.5 Z"/></g>
<g><path style="opacity:1" fill="#1a1311" d="M 32.5,19.5 C 32.5,23.1667 32.5,26.8333 32.5,30.5C 32.1667,30.5 31.8333,30.5 31.5,30.5C 29.3926,29.5318 27.0593,29.1984 24.5,29.5C 24.5,29.1667 24.5,28.8333 24.5,28.5C 24.2322,26.901 24.5655,25.5676 25.5,24.5C 25.3284,25.4916 25.6618,26.1583 26.5,26.5C 27.2223,27.5511 28.2223,28.2178 29.5,28.5C 31.7687,26.2009 32.102,23.5342 30.5,20.5C 31.1667,20.1667 31.8333,19.8333 32.5,19.5 Z"/></g>
<g><path style="opacity:1" fill="#9f7b0b" d="M 3.5,24.5 C 3.16667,25.8333 2.83333,27.1667 2.5,28.5C 2.16667,28.5 1.83333,28.5 1.5,28.5C 0.833333,28.5 0.166667,28.5 -0.5,28.5C -0.5,27.8333 -0.5,27.1667 -0.5,26.5C 0.833333,25.8333 2.16667,25.1667 3.5,24.5 Z"/></g>
<g><path style="opacity:1" fill="#8c1c0c" d="M 12.5,23.5 C 12.5,24.1667 12.5,24.8333 12.5,25.5C 11.7659,26.7079 11.4326,28.0413 11.5,29.5C 9.74395,28.4479 9.07729,26.7812 9.5,24.5C 10.209,23.596 11.209,23.2627 12.5,23.5 Z"/></g>
<g><path style="opacity:1" fill="#ecab3f" d="M 23.5,22.5 C 23.2053,24.7354 23.5386,26.7354 24.5,28.5C 24.5,28.8333 24.5,29.1667 24.5,29.5C 23.5655,30.5676 23.2322,31.901 23.5,33.5C 22.5,34.8333 21.5,36.1667 20.5,37.5C 20.1667,36.1667 19.8333,34.8333 19.5,33.5C 20.6946,33.1344 21.3613,32.301 21.5,31C 20.8524,29.5603 20.5191,28.0603 20.5,26.5C 21.404,25.791 21.7373,24.791 21.5,23.5C 22.1667,23.1667 22.8333,22.8333 23.5,22.5 Z"/></g>
<g><path style="opacity:1" fill="#efa026" d="M 37.5,23.5 C 38.3149,24.4293 39.1482,25.4293 40,26.5C 40.7096,25.0267 41.8762,24.3601 43.5,24.5C 43.5,24.8333 43.5,25.1667 43.5,25.5C 41.9743,26.1047 40.9743,27.2714 40.5,29C 39.552,29.4828 38.552,29.6495 37.5,29.5C 37.5,27.5 37.5,25.5 37.5,23.5 Z"/></g>
<g><path style="opacity:1" fill="#832516" d="M 9.5,24.5 C 9.07729,26.7812 9.74395,28.4479 11.5,29.5C 11.5,30.1667 11.5,30.8333 11.5,31.5C 10.1667,31.5 8.83333,31.5 7.5,31.5C 7.5,31.1667 7.5,30.8333 7.5,30.5C 8.16667,28.5 8.83333,26.5 9.5,24.5 Z"/></g>
<g><path style="opacity:1" fill="#9c1c0e" d="M 16.5,25.5 C 16.5,28.5 16.5,31.5 16.5,34.5C 15.7148,32.6264 15.0482,30.6264 14.5,28.5C 14.2852,26.8212 14.9519,25.8212 16.5,25.5 Z"/></g>
<g><path style="opacity:1" fill="#7e1a06" d="M 1.5,28.5 C 1.83333,28.5 2.16667,28.5 2.5,28.5C 4.4748,30.3619 4.80813,32.3619 3.5,34.5C 2.83333,35.8333 2.16667,37.1667 1.5,38.5C 1.5,36.1667 1.5,33.8333 1.5,31.5C 1.5,30.5 1.5,29.5 1.5,28.5 Z"/></g>
<g><path style="opacity:1" fill="#661d0c" d="M 12.5,25.5 C 13.1667,26.5 13.8333,27.5 14.5,28.5C 15.0482,30.6264 15.7148,32.6264 16.5,34.5C 16.5,34.8333 16.5,35.1667 16.5,35.5C 14.8007,35.4729 13.4674,34.8062 12.5,33.5C 12.6716,32.5084 12.3382,31.8417 11.5,31.5C 11.5,30.8333 11.5,30.1667 11.5,29.5C 11.4326,28.0413 11.7659,26.7079 12.5,25.5 Z"/></g>
<g><path style="opacity:1" fill="#d3762f" d="M 16.5,20.5 C 16.8333,20.5 17.1667,20.5 17.5,20.5C 17.5,22.1667 17.5,23.8333 17.5,25.5C 17.5,27.5 17.5,29.5 17.5,31.5C 17.5,32.8333 18.1667,33.5 19.5,33.5C 19.8333,34.8333 20.1667,36.1667 20.5,37.5C 18.8007,37.4729 17.4674,36.8062 16.5,35.5C 16.5,35.1667 16.5,34.8333 16.5,34.5C 16.5,31.5 16.5,28.5 16.5,25.5C 15.9285,24.0267 15.9285,22.36 16.5,20.5 Z"/></g>
<g><path style="opacity:1" fill="#9b410b" d="M 36.5,23.5 C 36.8333,23.5 37.1667,23.5 37.5,23.5C 37.5,25.5 37.5,27.5 37.5,29.5C 37.5,30.5 37.5,31.5 37.5,32.5C 37.5,33.1667 37.1667,33.5 36.5,33.5C 35.7222,32.8444 35.0556,32.0111 34.5,31C 34.5699,30.2352 34.9033,29.7352 35.5,29.5C 36.4614,27.7354 36.7947,25.7354 36.5,23.5 Z"/></g>
<g><path style="opacity:1" fill="#fa7b17" d="M 43.5,25.5 C 43.5,25.8333 43.5,26.1667 43.5,26.5C 42.8571,28.0764 41.8571,29.4097 40.5,30.5C 39.7777,31.5511 38.7777,32.2178 37.5,32.5C 37.5,31.5 37.5,30.5 37.5,29.5C 38.552,29.6495 39.552,29.4828 40.5,29C 40.9743,27.2714 41.9743,26.1047 43.5,25.5 Z"/></g>
<g><path style="opacity:1" fill="#f4c848" d="M 20.5,26.5 C 20.5191,28.0603 20.8524,29.5603 21.5,31C 21.3613,32.301 20.6946,33.1344 19.5,33.5C 18.1667,33.5 17.5,32.8333 17.5,31.5C 18.9348,30.0867 19.9348,28.42 20.5,26.5 Z"/></g>
<g><path style="opacity:1" fill="#f2dbc3" d="M 31.5,30.5 C 31.8333,30.5 32.1667,30.5 32.5,30.5C 32.4431,31.609 32.1098,32.609 31.5,33.5C 30.6618,33.8417 30.3284,34.5084 30.5,35.5C 30.1667,35.5 29.8333,35.5 29.5,35.5C 29.4729,33.8007 28.8062,32.4674 27.5,31.5C 28.7079,30.7659 30.0413,30.4326 31.5,30.5 Z"/></g>
<g><path style="opacity:1" fill="#f84c08" d="M 43.5,26.5 C 43.5,29.1667 43.5,31.8333 43.5,34.5C 42.603,33.4019 41.7697,33.4019 41,34.5C 40.51,33.2068 40.3433,31.8734 40.5,30.5C 41.8571,29.4097 42.8571,28.0764 43.5,26.5 Z"/></g>
<g><path style="opacity:1" fill="#480e0b" d="M 2.5,28.5 C 2.83333,28.5 3.16667,28.5 3.5,28.5C 4.5,28.8333 5.16667,29.5 5.5,30.5C 5.5,31.1667 5.5,31.8333 5.5,32.5C 5.57968,35.7814 4.91301,38.7814 3.5,41.5C 3.5,39.1667 3.5,36.8333 3.5,34.5C 4.80813,32.3619 4.4748,30.3619 2.5,28.5 Z"/></g>
<g><path style="opacity:1" fill="#511f17" d="M 7.5,31.5 C 8.83333,31.5 10.1667,31.5 11.5,31.5C 12.3382,31.8417 12.6716,32.5084 12.5,33.5C 12.2172,34.2891 11.7172,34.9558 11,35.5C 10.8413,33.6573 10.3413,32.9907 9.5,33.5C 9.16667,33.5 8.83333,33.5 8.5,33.5C 7.66175,33.1583 7.32842,32.4916 7.5,31.5 Z"/></g>
<g><path style="opacity:1" fill="#fae5d9" d="M 27.5,31.5 C 28.8062,32.4674 29.4729,33.8007 29.5,35.5C 27.9256,35.0629 26.7589,34.0629 26,32.5C 25.3123,31.6683 25.479,31.0016 26.5,30.5C 27.1067,30.6236 27.44,30.9569 27.5,31.5 Z"/></g>
<g><path style="opacity:1" fill="#53180c" d="M 32.5,19.5 C 32.8333,19.5 33.1667,19.5 33.5,19.5C 33.5,21.5 33.5,23.5 33.5,25.5C 33.6576,28.9023 33.3242,32.2356 32.5,35.5C 31.6618,35.1583 31.3284,34.4916 31.5,33.5C 32.1098,32.609 32.4431,31.609 32.5,30.5C 32.5,26.8333 32.5,23.1667 32.5,19.5 Z"/></g>
<g><path style="opacity:1" fill="#a72e0b" d="M 33.5,25.5 C 35.1042,26.287 35.7709,27.6203 35.5,29.5C 34.9033,29.7352 34.5699,30.2352 34.5,31C 35.0556,32.0111 35.7222,32.8444 36.5,33.5C 36.5,33.8333 36.5,34.1667 36.5,34.5C 35.5,34.5 34.5,34.5 33.5,34.5C 33.7373,35.791 33.404,36.791 32.5,37.5C 32.5,36.8333 32.5,36.1667 32.5,35.5C 33.3242,32.2356 33.6576,28.9023 33.5,25.5 Z"/></g>
<g><path style="opacity:1" fill="#b34b0c" d="M -0.5,28.5 C 0.166667,28.5 0.833333,28.5 1.5,28.5C 1.5,29.5 1.5,30.5 1.5,31.5C 0.833333,33.1667 0.166667,34.8333 -0.5,36.5C -0.5,33.8333 -0.5,31.1667 -0.5,28.5 Z"/></g>
<g><path style="opacity:1" fill="#db8f2a" d="M 24.5,29.5 C 24.9629,32.4824 25.2962,35.4824 25.5,38.5C 25.5,38.8333 25.5,39.1667 25.5,39.5C 24.8333,39.5 24.5,39.1667 24.5,38.5C 24.3713,36.7839 24.038,35.1172 23.5,33.5C 23.2322,31.901 23.5655,30.5676 24.5,29.5 Z"/></g>
<g><path style="opacity:1" fill="#f86210" d="M 40.5,30.5 C 40.3433,31.8734 40.51,33.2068 41,34.5C 41.7697,33.4019 42.603,33.4019 43.5,34.5C 43.5,34.8333 43.5,35.1667 43.5,35.5C 41.0504,35.298 38.717,35.6314 36.5,36.5C 36.5,35.8333 36.5,35.1667 36.5,34.5C 36.5,34.1667 36.5,33.8333 36.5,33.5C 37.1667,33.5 37.5,33.1667 37.5,32.5C 38.7777,32.2178 39.7777,31.5511 40.5,30.5 Z"/></g>
<g><path style="opacity:1" fill="#f96e0e" d="M 43.5,35.5 C 43.5,36.5 43.5,37.5 43.5,38.5C 41.8297,38.2488 40.3297,37.5822 39,36.5C 38.6174,37.056 38.1174,37.3893 37.5,37.5C 37.1667,37.5 36.8333,37.5 36.5,37.5C 36.5,37.1667 36.5,36.8333 36.5,36.5C 38.717,35.6314 41.0504,35.298 43.5,35.5 Z"/></g>
<g><path style="opacity:1" fill="#ae7448" d="M 24.5,29.5 C 27.0593,29.1984 29.3926,29.5318 31.5,30.5C 30.0413,30.4326 28.7079,30.7659 27.5,31.5C 27.44,30.9569 27.1067,30.6236 26.5,30.5C 25.479,31.0016 25.3123,31.6683 26,32.5C 26.7589,34.0629 27.9256,35.0629 29.5,35.5C 29.8333,35.5 30.1667,35.5 30.5,35.5C 28.7056,36.2329 27.0389,37.2329 25.5,38.5C 25.2962,35.4824 24.9629,32.4824 24.5,29.5 Z"/></g>
<g><path style="opacity:1" fill="#340809" d="M 5.5,32.5 C 6.33515,35.9937 6.33515,39.6603 5.5,43.5C 4.5,43.5 3.5,43.5 2.5,43.5C 2.83333,42.8333 3.16667,42.1667 3.5,41.5C 4.91301,38.7814 5.57968,35.7814 5.5,32.5 Z"/></g>
<g><path style="opacity:1" fill="#100404" d="M 8.5,33.5 C 8.83333,33.5 9.16667,33.5 9.5,33.5C 10.3045,36.4422 11.6378,39.1089 13.5,41.5C 13.5,42.1667 13.5,42.8333 13.5,43.5C 11.1667,43.5 8.83333,43.5 6.5,43.5C 7.0396,40.1353 7.70627,36.802 8.5,33.5 Z"/></g>
<g><path style="opacity:1" fill="#220c0c" d="M 12.5,33.5 C 13.4674,34.8062 14.8007,35.4729 16.5,35.5C 16.4326,36.9587 16.7659,38.2921 17.5,39.5C 16.2652,39.2786 15.2652,38.6119 14.5,37.5C 13.5713,38.6888 13.238,40.0222 13.5,41.5C 11.6378,39.1089 10.3045,36.4422 9.5,33.5C 10.3413,32.9907 10.8413,33.6573 11,35.5C 11.7172,34.9558 12.2172,34.2891 12.5,33.5 Z"/></g>
<g><path style="opacity:1" fill="#dc7829" d="M 23.5,33.5 C 24.038,35.1172 24.3713,36.7839 24.5,38.5C 23.596,39.209 23.2627,40.209 23.5,41.5C 22.1224,40.4549 21.1224,39.1216 20.5,37.5C 21.5,36.1667 22.5,34.8333 23.5,33.5 Z"/></g>
<g><path style="opacity:1" fill="#93390f" d="M 31.5,33.5 C 31.3284,34.4916 31.6618,35.1583 32.5,35.5C 32.5,36.1667 32.5,36.8333 32.5,37.5C 31.8333,39.5 31.1667,41.5 30.5,43.5C 29.1667,43.5 27.8333,43.5 26.5,43.5C 26.7678,41.901 26.4345,40.5676 25.5,39.5C 25.5,39.1667 25.5,38.8333 25.5,38.5C 27.0389,37.2329 28.7056,36.2329 30.5,35.5C 30.3284,34.5084 30.6618,33.8417 31.5,33.5 Z"/></g>
<g><path style="opacity:1" fill="#d72805" d="M 36.5,34.5 C 36.5,35.1667 36.5,35.8333 36.5,36.5C 36.5,36.8333 36.5,37.1667 36.5,37.5C 35.8826,37.3893 35.3826,37.056 35,36.5C 34.5522,39.0307 33.7189,41.3641 32.5,43.5C 31.8333,43.5 31.1667,43.5 30.5,43.5C 31.1667,41.5 31.8333,39.5 32.5,37.5C 33.404,36.791 33.7373,35.791 33.5,34.5C 34.5,34.5 35.5,34.5 36.5,34.5 Z"/></g>
<g><path style="opacity:1" fill="#ea2000" d="M 38.5,38.5 C 41.4841,38.7868 42.8174,40.4535 42.5,43.5C 40.8333,43.5 39.1667,43.5 37.5,43.5C 37.366,41.7085 37.6993,40.0418 38.5,38.5 Z"/></g>
<g><path style="opacity:1" fill="#912805" d="M 1.5,31.5 C 1.5,33.8333 1.5,36.1667 1.5,38.5C 1.5,40.1667 1.5,41.8333 1.5,43.5C 0.833333,43.5 0.166667,43.5 -0.5,43.5C -0.5,41.1667 -0.5,38.8333 -0.5,36.5C 0.166667,34.8333 0.833333,33.1667 1.5,31.5 Z"/></g>
<g><path style="opacity:1" fill="#1c1009" d="M 17.5,39.5 C 19.2014,40.2114 20.2014,41.5447 20.5,43.5C 18.1667,43.5 15.8333,43.5 13.5,43.5C 13.5,42.8333 13.5,42.1667 13.5,41.5C 13.238,40.0222 13.5713,38.6888 14.5,37.5C 15.2652,38.6119 16.2652,39.2786 17.5,39.5 Z"/></g>
<g><path style="opacity:1" fill="#fc4a08" d="M 43.5,38.5 C 43.5,40.1667 43.5,41.8333 43.5,43.5C 43.1667,43.5 42.8333,43.5 42.5,43.5C 42.8174,40.4535 41.4841,38.7868 38.5,38.5C 37.8333,38.5 37.5,38.1667 37.5,37.5C 38.1174,37.3893 38.6174,37.056 39,36.5C 40.3297,37.5822 41.8297,38.2488 43.5,38.5 Z"/></g>
<g><path style="opacity:1" fill="#250b06" d="M 5.5,30.5 C 6.16667,30.8333 6.83333,31.1667 7.5,31.5C 7.32842,32.4916 7.66175,33.1583 8.5,33.5C 7.70627,36.802 7.0396,40.1353 6.5,43.5C 6.16667,43.5 5.83333,43.5 5.5,43.5C 6.33515,39.6603 6.33515,35.9937 5.5,32.5C 5.5,31.8333 5.5,31.1667 5.5,30.5 Z"/></g>
<g><path style="opacity:1" fill="#aa511d" d="M 16.5,35.5 C 17.4674,36.8062 18.8007,37.4729 20.5,37.5C 21.1224,39.1216 22.1224,40.4549 23.5,41.5C 23.5,42.1667 23.5,42.8333 23.5,43.5C 22.5,43.5 21.5,43.5 20.5,43.5C 20.2014,41.5447 19.2014,40.2114 17.5,39.5C 16.7659,38.2921 16.4326,36.9587 16.5,35.5 Z"/></g>
<g><path style="opacity:1" fill="#c87f1a" d="M 24.5,38.5 C 24.5,39.1667 24.8333,39.5 25.5,39.5C 26.4345,40.5676 26.7678,41.901 26.5,43.5C 25.5,43.5 24.5,43.5 23.5,43.5C 23.5,42.8333 23.5,42.1667 23.5,41.5C 23.2627,40.209 23.596,39.209 24.5,38.5 Z"/></g>
<g><path style="opacity:1" fill="#ef1d03" d="M 36.5,37.5 C 36.8333,37.5 37.1667,37.5 37.5,37.5C 37.5,38.1667 37.8333,38.5 38.5,38.5C 37.6993,40.0418 37.366,41.7085 37.5,43.5C 35.8333,43.5 34.1667,43.5 32.5,43.5C 33.7189,41.3641 34.5522,39.0307 35,36.5C 35.3826,37.056 35.8826,37.3893 36.5,37.5 Z"/></g>
<g><path style="opacity:1" fill="#570f0b" d="M 3.5,34.5 C 3.5,36.8333 3.5,39.1667 3.5,41.5C 3.16667,42.1667 2.83333,42.8333 2.5,43.5C 2.16667,43.5 1.83333,43.5 1.5,43.5C 1.5,41.8333 1.5,40.1667 1.5,38.5C 2.16667,37.1667 2.83333,35.8333 3.5,34.5 Z"/></g>
</svg>
